<?xml version="1.0" ?><!DOCTYPE svg  PUBLIC '-//W3C//DTD SVG 1.1//EN'  'http://www.w3.org/Graphics/SVG/1.1/DTD/svg11.dtd'><svg height="512px" style="enable-background:new 0 0 512 512;" version="1.1" viewBox="0 0 512 512" width="512px" xml:space="preserve" xmlns="http://www.w3.org/2000/svg" xmlns:xlink="http://www.w3.org/1999/xlink"><style type="text/css">
<![CDATA[
	.st0{display:inline;}
	.st1{fill:none;stroke:#000000;stroke-width:16;stroke-linecap:round;stroke-linejoin:round;stroke-miterlimit:10;}
	.st2{display:none;}
]]>
</style><g class="st2" id="cross"><g class="st0"><line class="st1" x1="112.5" x2="401" y1="112.5" y2="401"/><line class="st1" x1="401" x2="112.5" y1="112.5" y2="401"/></g></g><g id="cross_copy"><path d="M268.064,256.75l138.593-138.593c3.124-3.124,3.124-8.189,0-11.313c-3.125-3.124-8.189-3.124-11.314,0L256.75,245.436   L118.157,106.843c-3.124-3.124-8.189-3.124-11.313,0c-3.125,3.124-3.125,8.189,0,11.313L245.436,256.75L106.843,395.343   c-3.125,3.125-3.125,8.189,0,11.314c1.562,1.562,3.609,2.343,5.657,2.343s4.095-0.781,5.657-2.343L256.75,268.064l138.593,138.593   c1.563,1.562,3.609,2.343,5.657,2.343s4.095-0.781,5.657-2.343c3.124-3.125,3.124-8.189,0-11.314L268.064,256.75z"/></g></svg>